# xmcd CD database file
#
# Track frame offsets:
#	150
#	16430
#	26966
#	39368
#	57203
#	64865
#	76523
#	92138
#	102444
#	119702
#
# Disc length: 1795 seconds
#
# Revision: 0
# Processed by: cddbd v1.5.2PL0 Copyright (c) Steve Scherf et al.
# Submitted via: CDex 1.70beta2
#
DISCID=7f07010a
DTITLE=Keep Off The Grass - Moment of glory
DYEAR=2001
DGENRE=Country
TTITLE0=Riding on a railroad
TTITLE1=Wichita
TTITLE2=Utah moon
TTITLE3=Don't let me come home
TTITLE4=He delivered me
TTITLE5=Forever young
TTITLE6=Stand by me
TTITLE7=That lonesome road
TTITLE8=Late
TTITLE9=Moment of glory
EXTD=YEAR: 2001
EXTT0=
EXTT1=
EXTT2=
EXTT3=
EXTT4=
EXTT5=
EXTT6=
EXTT7=
EXTT8=
EXTT9=
PLAYORDER=
